<?xml version="1.0" encoding="UTF-8" standalone="no"?>
<!-- Created with Inkscape (http://www.inkscape.org/) -->

<svg
   width="210mm"
   height="297mm"
   viewBox="0 0 210 297"
   version="1.1"
   id="svg60"
   inkscape:version="1.1.1 (3bf5ae0d25, 2021-09-20)"
   sodipodi:docname="pump.svg"
   xmlns:inkscape="http://www.inkscape.org/namespaces/inkscape"
   xmlns:sodipodi="http://sodipodi.sourceforge.net/DTD/sodipodi-0.dtd"
   xmlns="http://www.w3.org/2000/svg"
   xmlns:svg="http://www.w3.org/2000/svg">
  <sodipodi:namedview
     id="namedview62"
     pagecolor="#ffffff"
     bordercolor="#999999"
     borderopacity="1"
     inkscape:pageshadow="0"
     inkscape:pageopacity="0"
     inkscape:pagecheckerboard="0"
     inkscape:document-units="mm"
     showgrid="false"
     inkscape:zoom="3.885397"
     inkscape:cx="184.7945"
     inkscape:cy="262.52144"
     inkscape:window-width="3840"
     inkscape:window-height="2036"
     inkscape:window-x="-12"
     inkscape:window-y="-12"
     inkscape:window-maximized="1"
     inkscape:current-layer="g46139" />
  <defs
     id="defs57" />
  <g
     inkscape:label="Layer 1"
     inkscape:groupmode="layer"
     id="layer1">
    <rect
       style="fill:#3f4243;fill-opacity:1;stroke:#000000;stroke-width:0.263278;stroke-linecap:round;stroke-linejoin:round;stroke-miterlimit:4;stroke-dasharray:none;stroke-opacity:1;paint-order:fill markers stroke"
       id="rect8652"
       width="14.736723"
       height="14.736722"
       x="63.99794"
       y="60.42931"
       ry="0.41205567" />
    <circle
       style="fill:#007bff;fill-opacity:1;stroke:#000000;stroke-width:0.246944;stroke-linecap:round;stroke-linejoin:round;stroke-miterlimit:4;stroke-dasharray:none;stroke-opacity:1;paint-order:fill markers stroke"
       id="path1812-9-2"
       cx="71.366302"
       cy="67.797668"
       r="5.5084472" />
    <path
       id="rect5247"
       style="fill:#6d7174;fill-opacity:1;stroke:#000000;stroke-width:0.246944;stroke-linecap:round;stroke-linejoin:round;stroke-miterlimit:4;stroke-dasharray:none;paint-order:fill markers stroke"
       d="m 69.341395,62.236146 h 4.165981 c -1.739793,1.72732 -2.190374,3.5774 -1.189151,5.56152 1.835556,2.44606 1.452953,3.98979 1.189151,5.56153 h -4.165981 c 1.223555,-1.80783 2.237283,-3.62734 1.189151,-5.56153 -1.122785,-1.85384 -2.047915,-3.70768 -1.189151,-5.56152 z"
       sodipodi:nodetypes="ccccccc" />
    <path
       id="rect5247-7"
       style="fill:#6d7174;fill-opacity:1;stroke:#000000;stroke-width:0.246944;stroke-linecap:round;stroke-linejoin:round;stroke-miterlimit:4;stroke-dasharray:none;paint-order:fill markers stroke"
       d="m 76.927828,65.77276 v 4.16599 c -1.72732,-1.7398 -3.5774,-2.19038 -5.56152,-1.18916 -2.44606,1.83556 -3.98979,1.45296 -5.56153,1.18916 v -4.16599 c 1.80783,1.22356 3.62734,2.23729 5.56153,1.18916 1.85384,-1.12279 3.70768,-2.04792 5.56152,-1.18916 z"
       sodipodi:nodetypes="ccccccc" />
    <circle
       style="fill:#3f4243;fill-opacity:1;stroke:#000000;stroke-width:0.246944;stroke-linecap:round;stroke-linejoin:round;stroke-miterlimit:4;stroke-dasharray:none;stroke-opacity:1;paint-order:fill markers stroke"
       id="path1392"
       cx="71.366302"
       cy="67.797668"
       r="1.2612273" />
    <path
       style="fill:#abaeb0;fill-opacity:1;stroke:#000000;stroke-width:0.246944;stroke-linecap:round;stroke-linejoin:round;stroke-miterlimit:4;stroke-dasharray:none;stroke-opacity:1;paint-order:fill markers stroke"
       d="m 70.726082,74.662456 c -1.253518,-0.11807 -2.514197,-0.61482 -3.558062,-1.40198 -0.352857,-0.26609 -1.001662,-0.91588 -1.272724,-1.27467 -1.230331,-1.62851 -1.690679,-3.64416 -1.278324,-5.59718 0.125887,-0.59623 0.288972,-1.06853 0.556478,-1.61156 1.026222,-2.08324 2.917675,-3.4635 5.229171,-3.8159 0.499816,-0.0762 1.437139,-0.0758 1.940761,7.9e-4 1.514226,0.23037 2.834386,0.89343 3.899476,1.95852 2.218981,2.21898 2.660873,5.66088 1.073137,8.35868 -1.35554,2.30326 -3.944527,3.63245 -6.589913,3.38328 z m 1.753491,-1.45769 c 2.211539,-0.47389 3.870018,-2.15321 4.313844,-4.36804 0.103327,-0.51564 0.110622,-1.50357 0.0149,-2.01676 -0.421945,-2.26196 -2.091211,-3.96144 -4.369914,-4.449 -0.319426,-0.0684 -0.460764,-0.0784 -1.082419,-0.0772 -0.604996,0.001 -0.768268,0.0129 -1.061095,0.0762 -0.752533,0.16267 -1.387182,0.42828 -2.002121,0.83794 -1.195283,0.79627 -2.014405,2.01486 -2.340042,3.48123 -0.06359,0.28637 -0.0747,0.44388 -0.07647,1.08412 -0.0018,0.66047 0.0073,0.79287 0.07721,1.11945 0.447122,2.08902 2.002606,3.72718 4.030797,4.24502 0.53848,0.13749 0.82682,0.16674 1.507919,0.15299 0.493855,-0.01 0.727482,-0.0303 0.987404,-0.086 z"
       id="path6325" />
    <g
       id="g46131"
       transform="translate(29.697723,-89.555292)">
      <rect
         style="fill:#3f4243;fill-opacity:1;stroke:#000000;stroke-width:0.209239;stroke-linecap:round;stroke-linejoin:round;stroke-miterlimit:4;stroke-dasharray:none;stroke-opacity:1;paint-order:fill markers stroke"
         id="rect45676-95"
         width="1.127255"
         height="2.6934826"
         x="49.059647"
         y="150.27821" />
      <rect
         style="fill:#3f4243;fill-opacity:1;stroke:#000000;stroke-width:0.228338;stroke-linecap:round;stroke-linejoin:round;stroke-miterlimit:4;stroke-dasharray:none;stroke-opacity:1;paint-order:fill markers stroke"
         id="rect45676"
         width="1.097753"
         height="3.2938552"
         x="49.584713"
         y="149.96713" />
    </g>
    <g
       id="g46135"
       transform="translate(29.543884,-90.80109)">
      <rect
         style="fill:#3f4243;fill-opacity:1;stroke:#000000;stroke-width:0.209239;stroke-linecap:round;stroke-linejoin:round;stroke-miterlimit:4;stroke-dasharray:none;stroke-opacity:1;paint-order:fill markers stroke"
         id="rect45676-95-2"
         width="1.127255"
         height="2.6934826"
         x="49.213486"
         y="155.34995" />
      <rect
         style="fill:#3f4243;fill-opacity:1;stroke:#000000;stroke-width:0.228338;stroke-linecap:round;stroke-linejoin:round;stroke-miterlimit:4;stroke-dasharray:none;stroke-opacity:1;paint-order:fill markers stroke"
         id="rect45676-0"
         width="1.097753"
         height="3.2938552"
         x="49.738552"
         y="155.03886" />
    </g>
    <g
       id="g46139"
       transform="translate(29.495735,-90.634698)">
      <rect
         style="fill:#3f4243;fill-opacity:1;stroke:#000000;stroke-width:0.209239;stroke-linecap:round;stroke-linejoin:round;stroke-miterlimit:4;stroke-dasharray:none;stroke-opacity:1;paint-order:fill markers stroke"
         id="rect45676-95-6"
         width="1.127255"
         height="2.6934826"
         x="49.261635"
         y="159.00949" />
      <rect
         style="fill:#3f4243;fill-opacity:1;stroke:#000000;stroke-width:0.228338;stroke-linecap:round;stroke-linejoin:round;stroke-miterlimit:4;stroke-dasharray:none;stroke-opacity:1;paint-order:fill markers stroke"
         id="rect45676-6"
         width="1.097753"
         height="3.2938552"
         x="49.786701"
         y="158.69841" />
    </g>
    <g
       id="g46143"
       transform="translate(29.736492,-90.179382)">
      <rect
         style="fill:#3f4243;fill-opacity:1;stroke:#000000;stroke-width:0.209239;stroke-linecap:round;stroke-linejoin:round;stroke-miterlimit:4;stroke-dasharray:none;stroke-opacity:1;paint-order:fill markers stroke"
         id="rect45676-95-3"
         width="1.127255"
         height="2.6934826"
         x="49.020878"
         y="162.38011" />
      <rect
         style="fill:#3f4243;fill-opacity:1;stroke:#000000;stroke-width:0.228338;stroke-linecap:round;stroke-linejoin:round;stroke-miterlimit:4;stroke-dasharray:none;stroke-opacity:1;paint-order:fill markers stroke"
         id="rect45676-3"
         width="1.097753"
         height="3.2938552"
         x="49.545944"
         y="162.06903" />
    </g>
  </g>
</svg>
