<?xml version="1.0" encoding="UTF-8" standalone="no"?>
<!-- Created with Inkscape (http://www.inkscape.org/) -->

<svg
   width="210mm"
   height="297mm"
   viewBox="0 0 210 297"
   version="1.1"
   id="svg192"
   inkscape:version="1.1.1 (3bf5ae0d25, 2021-09-20)"
   sodipodi:docname="drag-drop-icon.svg"
   xmlns:inkscape="http://www.inkscape.org/namespaces/inkscape"
   xmlns:sodipodi="http://sodipodi.sourceforge.net/DTD/sodipodi-0.dtd"
   xmlns="http://www.w3.org/2000/svg"
   xmlns:svg="http://www.w3.org/2000/svg">
  <sodipodi:namedview
     id="namedview194"
     pagecolor="#ffffff"
     bordercolor="#999999"
     borderopacity="1"
     inkscape:pageshadow="0"
     inkscape:pageopacity="0"
     inkscape:pagecheckerboard="0"
     inkscape:document-units="mm"
     showgrid="false"
     inkscape:zoom="0.32"
     inkscape:cx="489.0625"
     inkscape:cy="62.5"
     inkscape:window-width="1916"
     inkscape:window-height="2022"
     inkscape:window-x="1910"
     inkscape:window-y="0"
     inkscape:window-maximized="0"
     inkscape:current-layer="layer1" />
  <defs
     id="defs189" />
  <g
     inkscape:label="Layer 1"
     inkscape:groupmode="layer"
     id="layer1">
    <path
       style="fill:#000000;stroke-width:0.264583"
       d="m 164.33568,170.8961 c -0.20181,-0.32074 -2.83263,-4.8694 -5.84626,-10.10815 -3.01364,-5.23875 -5.57941,-9.63139 -5.7017,-9.76143 -0.12577,-0.13374 -2.90078,2.35974 -6.38884,5.74069 l -6.16649,5.97711 -0.15208,-22.54173 c -0.0836,-12.39794 -0.11703,-22.58771 -0.0742,-22.64392 0.0428,-0.0562 8.82928,5.00132 19.52542,11.23895 10.69614,6.23764 19.36156,11.42081 19.25648,11.51816 -0.10507,0.0974 -3.67598,1.16598 -7.93534,2.37471 -4.25936,1.20874 -7.87273,2.27707 -8.02971,2.37409 -0.17698,0.10938 1.85169,3.88363 5.33969,9.93426 3.0938,5.36682 5.78132,10.00009 5.97225,10.29615 0.32888,0.50995 0.0898,0.68687 -4.54257,3.36127 -4.85634,2.80371 -4.89224,2.81901 -5.25666,2.23984 z m -66.03974,-3.18369 c -1.41649,-0.74591 -1.89415,-1.14074 -2.58783,-2.13907 l -0.71947,-1.03545 -0.13229,-15.10413 -0.13229,-15.10414 -5.6224,-0.0714 -5.62239,-0.0714 v -5.54572 -5.54573 l 5.62239,-0.0714 5.6224,-0.0714 0.13229,-15.10413 0.13229,-15.10414 0.72331,-1.03545 c 0.39783,-0.56949 1.16288,-1.3331 1.70014,-1.6969 l 0.97682,-0.66146 15.10091,-0.13229 15.10091,-0.13229 0.0714,-5.6224 0.0714,-5.62239 h 5.54572 5.54573 l 0.0714,5.62239 0.0714,5.6224 15.10414,0.13229 15.10414,0.13229 1.03544,0.72331 c 0.56949,0.39782 1.3331,1.16287 1.6969,1.70011 l 0.66146,0.97679 0.0738,12.25667 0.0738,12.25666 h -5.56015 -5.56015 l -0.0699,-8.40052 -0.0699,-8.40052 H 134.27923 106.1011 v 28.17813 28.17812 l 11.31094,0.069 11.31094,0.069 v 5.55341 5.55341 l -14.88281,-0.002 c -11.79324,-0.001 -15.02013,-0.0739 -15.54427,-0.34995 z M 60.98969,128.64108 v -5.55625 h 5.55625 5.55625 v 5.55625 5.55625 h -5.55625 -5.55625 z m 0,-22.62188 v -5.68854 h 5.55625 5.55625 v 5.68854 5.68854 h -5.55625 -5.55625 z m 0,-22.48958 v -5.68854 h 5.55625 5.55625 v 5.68854 5.68854 h -5.55625 -5.55625 z m 0,-22.62188 v -5.55625 h 5.55625 5.55625 v 5.55625 5.55625 h -5.55625 -5.55625 z m 22.48958,0 v -5.55625 h 5.68854 5.68854 v 5.55625 5.55625 h -5.68854 -5.68854 z m 22.48958,0 v -5.55625 h 5.68854 5.68854 v 5.55625 5.55625 h -5.68854 -5.68854 z m 22.75417,0 v -5.55625 h 5.55625 5.55625 v 5.55625 5.55625 h -5.55625 -5.55625 z"
       id="path169" />
  </g>
</svg>
