<svg id="Ebene_1" data-name="Ebene 1" xmlns="http://www.w3.org/2000/svg" viewBox="0 0 182.3 182.3"><defs><style>.cls-1{fill:#1a3f78;}.cls-2{fill:#fff;}</style></defs><circle class="cls-1" cx="91.15" cy="91.15" r="91.15"/><path class="cls-2" d="M426.09,284.07c-1.85,2-3.58,4.12-5.37,6.21s-3.59,4.23-5.39,6.34L409.94,303l-5.46,6.42a11.73,11.73,0,0,1-.93-.87q-5.69-6.57-11.36-13.13c-2.68-3.1-5.35-6.21-8-9.3q-5.86-6.76-11.74-13.51c-1-1.08-1.94-2.13-2.88-3.17-.68.24-.44.74-.44,1.1q0,12.66,0,25.32v47.94a3.54,3.54,0,0,1-.75.26H357.47a4.34,4.34,0,0,1-.73-.13,4.64,4.64,0,0,1-.18-2q0-11.4,0-22.79v-68a3.35,3.35,0,0,1,.75-.21c4.28,0,8.56,0,13,0,.45.48,1,1,1.42,1.53l13.52,16,18.25,21.5a9.44,9.44,0,0,0,.71.71c.29-.29.55-.52.77-.78l18.83-22.44c2-2.35,3.91-4.74,5.91-7.07a29.31,29.31,0,0,1,16.18-9.93,38.59,38.59,0,0,1,10.21-1,29.31,29.31,0,0,1,13.34,3.42c6.81,3.87,11.51,9.41,13.34,17.16.25,1,.43,2.12.61,3.18a4.39,4.39,0,0,1,0,1.87,19.75,19.75,0,0,1-3.25.1c-1.09,0-2.17,0-3.26,0s-2.05,0-3.07,0a14.19,14.19,0,0,1-3.3-.16c-.09-.48-.2-.94-.27-1.41-.85-5.83-4.09-9.66-9.7-11.4a22.53,22.53,0,0,0-12.32-.31,14.59,14.59,0,0,0-8.8,6.49,13,13,0,0,0-2.27,7.67,11.47,11.47,0,0,0,3.07,7.52,16.71,16.71,0,0,0,6.8,4.31c2.43.89,4.89,1.7,7.34,2.52,4.57,1.52,9.22,2.81,13.7,4.59a34.93,34.93,0,0,1,9.55,5.39A21.13,21.13,0,0,1,485,312a26.78,26.78,0,0,1-1.5,17.49,24.08,24.08,0,0,1-6.46,8.6,32.24,32.24,0,0,1-14.61,7.13,40.58,40.58,0,0,1-11.15.64,36.14,36.14,0,0,1-19.35-6.76,26.94,26.94,0,0,1-9.15-11.43,24.52,24.52,0,0,1-1.87-9.69,5.82,5.82,0,0,1,.09-.75,2.4,2.4,0,0,1,.68-.21c3.74,0,7.48,0,11.21,0a4.6,4.6,0,0,1,.65.11,8.5,8.5,0,0,1,.22,1.16,15.44,15.44,0,0,0,8.61,13.49,22.44,22.44,0,0,0,10.38,2.71,26.94,26.94,0,0,0,9.45-1.19c4.08-1.41,7.45-3.76,9.42-7.69,2.34-4.69,2.37-9.4-.47-13.94a13.45,13.45,0,0,0-4.61-4.26,24.61,24.61,0,0,0-5.1-2.3c-3.77-1.22-7.56-2.41-11.33-3.65-3-1-5.94-2-8.86-3.08a27,27,0,0,1-9-5.62,23.94,23.94,0,0,1-5.35-7.45c-.17-.38-.35-.75-.54-1.13C426.34,284.15,426.25,284.14,426.09,284.07Z" transform="translate(-330.02 -206.52)"/></svg>