<svg id="Ebene_1" data-name="Ebene 1" xmlns="http://www.w3.org/2000/svg" viewBox="0 0 391.21 96.63"><defs><style>.cls-1{fill:#173a64;}</style></defs><path class="cls-1" d="M283.5,284.07c-1.86,2-3.59,4.12-5.38,6.21s-3.59,4.23-5.38,6.34L267.35,303l-5.47,6.42c-.36-.33-.67-.58-.93-.87L249.6,295.37l-8-9.3q-5.87-6.76-11.75-13.51c-.95-1.08-1.93-2.13-2.88-3.17-.68.24-.43.74-.43,1.1q0,12.66,0,25.32v47.94a3,3,0,0,1-.76.26H214.88a4.34,4.34,0,0,1-.73-.13,4.63,4.63,0,0,1-.18-2q0-11.38,0-22.79v-68a3.22,3.22,0,0,1,.75-.21c4.27,0,8.55,0,13,0,.45.48.95,1,1.41,1.53,4.52,5.34,9,10.69,13.53,16q9.1,10.75,18.25,21.5a9.44,9.44,0,0,0,.71.71c.29-.29.55-.52.77-.78l18.82-22.44c2-2.35,3.91-4.74,5.92-7.07a29.25,29.25,0,0,1,16.17-9.93,38.67,38.67,0,0,1,10.21-1,29.35,29.35,0,0,1,13.35,3.42c6.8,3.87,11.5,9.41,13.34,17.16.25,1,.43,2.12.61,3.19a4.35,4.35,0,0,1,0,1.86,19.72,19.72,0,0,1-3.25.1c-1.08,0-2.17,0-3.25,0s-2.05,0-3.08,0a14.24,14.24,0,0,1-3.3-.16c-.09-.48-.2-.94-.27-1.41-.85-5.83-4.09-9.66-9.7-11.4a22.49,22.49,0,0,0-12.31-.31,14.56,14.56,0,0,0-8.8,6.49A13,13,0,0,0,294.5,276a11.37,11.37,0,0,0,3.07,7.52,16.64,16.64,0,0,0,6.8,4.31c2.42.89,4.88,1.7,7.34,2.52,4.57,1.52,9.21,2.81,13.69,4.59a35.13,35.13,0,0,1,9.56,5.39A21.12,21.12,0,0,1,342.38,312a26.72,26.72,0,0,1-1.5,17.49,24.05,24.05,0,0,1-6.45,8.6,32.29,32.29,0,0,1-14.61,7.13,40.62,40.62,0,0,1-11.15.64,36.21,36.21,0,0,1-19.35-6.75,26.88,26.88,0,0,1-9.15-11.44,24.53,24.53,0,0,1-1.88-9.69c0-.23.06-.46.09-.75a2.4,2.4,0,0,1,.68-.21c3.74,0,7.48,0,11.22,0a4.51,4.51,0,0,1,.64.11,7.22,7.22,0,0,1,.23,1.16,15.4,15.4,0,0,0,8.61,13.49,22.41,22.41,0,0,0,10.38,2.71,27,27,0,0,0,9.45-1.19c4.07-1.41,7.44-3.76,9.41-7.69,2.35-4.69,2.38-9.4-.47-13.94a13.45,13.45,0,0,0-4.61-4.26,24.29,24.29,0,0,0-5.09-2.3c-3.78-1.22-7.57-2.4-11.34-3.65-3-1-5.94-2-8.85-3.08a27,27,0,0,1-9-5.62,23.75,23.75,0,0,1-5.34-7.45l-.54-1.13S283.66,284.14,283.5,284.07Z" transform="translate(-213.95 -249.35)"/><path class="cls-1" d="M362.51,255.59h4.83l.84,22.07v11h-5.67Zm2.31,0h5.08l9.53,25.5,9.51-25.5H394l-12.6,33.06h-4Zm26.68,0h4.85v33.06h-5.68v-11Z" transform="translate(-213.95 -249.35)"/><path class="cls-1" d="M402.58,257.63a2.81,2.81,0,0,1,.83-2.07,3.57,3.57,0,0,1,4.58,0,2.78,2.78,0,0,1,.84,2.07,2.75,2.75,0,0,1-.84,2.05,3.64,3.64,0,0,1-4.58,0A2.78,2.78,0,0,1,402.58,257.63Zm5.84,6.45v24.57h-5.48V264.08Z" transform="translate(-213.95 -249.35)"/><path class="cls-1" d="M424.46,284.74a5.43,5.43,0,0,0,2.41-.53,4.61,4.61,0,0,0,1.75-1.49,4.13,4.13,0,0,0,.73-2.2h5.14a7.66,7.66,0,0,1-1.4,4.34,9.79,9.79,0,0,1-3.6,3.1,10.81,10.81,0,0,1-5,1.14,11.56,11.56,0,0,1-4.89-1,9.7,9.7,0,0,1-3.47-2.67,11.73,11.73,0,0,1-2.07-3.93,16,16,0,0,1-.69-4.77V276a16.1,16.1,0,0,1,.69-4.78,11.69,11.69,0,0,1,2.07-3.94,9.7,9.7,0,0,1,3.47-2.67,11.48,11.48,0,0,1,4.86-1,10.92,10.92,0,0,1,5.17,1.17,8.9,8.9,0,0,1,3.5,3.24,9.38,9.38,0,0,1,1.32,4.83h-5.14a5.64,5.64,0,0,0-.67-2.47,4.6,4.6,0,0,0-1.67-1.75,4.84,4.84,0,0,0-2.57-.66,5.08,5.08,0,0,0-2.74.67,4.63,4.63,0,0,0-1.7,1.81,8.66,8.66,0,0,0-.87,2.57,15.68,15.68,0,0,0-.27,2.94v.79a17.91,17.91,0,0,0,.25,3,8.09,8.09,0,0,0,.88,2.55,4.67,4.67,0,0,0,1.71,1.79A5.13,5.13,0,0,0,424.46,284.74Z" transform="translate(-213.95 -249.35)"/><path class="cls-1" d="M444.19,268.76v19.89h-5.46V264.08h5.21Zm7.49-4.84,0,5.09a10.54,10.54,0,0,0-1.08-.14c-.38,0-.76,0-1.14,0a7.15,7.15,0,0,0-2.47.39,4.87,4.87,0,0,0-1.78,1.14,5.19,5.19,0,0,0-1.1,1.78,8.38,8.38,0,0,0-.45,2.34l-1.24.09a19.34,19.34,0,0,1,.45-4.29,11.49,11.49,0,0,1,1.37-3.47,6.81,6.81,0,0,1,2.31-2.34,6.12,6.12,0,0,1,3.23-.84,6.91,6.91,0,0,1,1.07.09A4.75,4.75,0,0,1,451.68,263.92Z" transform="translate(-213.95 -249.35)"/><path class="cls-1" d="M453.66,276.64v-.53a15.12,15.12,0,0,1,.77-4.93,11.66,11.66,0,0,1,2.23-4,10.12,10.12,0,0,1,3.57-2.63,12.75,12.75,0,0,1,9.61,0,10.29,10.29,0,0,1,3.59,2.63,11.68,11.68,0,0,1,2.24,4,15.39,15.39,0,0,1,.77,4.93v.53a15.28,15.28,0,0,1-.77,4.92,11.63,11.63,0,0,1-2.24,4,10.34,10.34,0,0,1-3.58,2.63,12.7,12.7,0,0,1-9.59,0,10.29,10.29,0,0,1-3.59-2.63,11.63,11.63,0,0,1-2.24-4A15,15,0,0,1,453.66,276.64Zm5.45-.53v.53a14.3,14.3,0,0,0,.34,3.13,7.94,7.94,0,0,0,1.07,2.59,5.28,5.28,0,0,0,1.86,1.75,5.43,5.43,0,0,0,2.69.63,5.05,5.05,0,0,0,4.48-2.38,8,8,0,0,0,1.08-2.59,13.71,13.71,0,0,0,.35-3.13v-.53a13.36,13.36,0,0,0-.35-3.09,8.11,8.11,0,0,0-1.09-2.6,5.54,5.54,0,0,0-1.85-1.79,5.87,5.87,0,0,0-5.33,0,5.43,5.43,0,0,0-1.84,1.79,8.09,8.09,0,0,0-1.07,2.6A13.93,13.93,0,0,0,459.11,276.11Z" transform="translate(-213.95 -249.35)"/><path class="cls-1" d="M493.5,264.08v4H479.23v-4Zm-5.05,24.57H483V261.72a9.45,9.45,0,0,1,1-4.62,6.75,6.75,0,0,1,3-2.84,10.12,10.12,0,0,1,4.56-1,12.17,12.17,0,0,1,1.6.1,11,11,0,0,1,1.54.31l-.13,4.22a5.69,5.69,0,0,0-1-.16c-.35,0-.73,0-1.14,0a4.57,4.57,0,0,0-2.14.47,3.11,3.11,0,0,0-1.36,1.35,4.66,4.66,0,0,0-.46,2.18Z" transform="translate(-213.95 -249.35)"/><path class="cls-1" d="M503.33,253.77v34.88h-5.48V253.77Z" transform="translate(-213.95 -249.35)"/><path class="cls-1" d="M524.87,277.75l1.83-.05a18.16,18.16,0,0,1-.54,4.56,10.54,10.54,0,0,1-1.68,3.61,7.67,7.67,0,0,1-2.9,2.38,9.61,9.61,0,0,1-4.23.85,9.87,9.87,0,0,1-3.29-.52,6.8,6.8,0,0,1-2.57-1.61,7.31,7.31,0,0,1-1.66-2.84,13.25,13.25,0,0,1-.59-4.18V264.08h5.46V280a6.77,6.77,0,0,0,.31,2.23,3.9,3.9,0,0,0,.87,1.45,3.05,3.05,0,0,0,1.26.77,5.21,5.21,0,0,0,1.54.22,6.44,6.44,0,0,0,3.68-.91,5.13,5.13,0,0,0,1.93-2.49A10.23,10.23,0,0,0,524.87,277.75Zm-.77,5.11V264.08h5.48v24.57h-5.17Z" transform="translate(-213.95 -249.35)"/><path class="cls-1" d="M535.2,257.63a2.8,2.8,0,0,1,.82-2.07,3.59,3.59,0,0,1,4.59,0,2.78,2.78,0,0,1,.84,2.07,2.75,2.75,0,0,1-.84,2.05,3.66,3.66,0,0,1-4.59,0A2.77,2.77,0,0,1,535.2,257.63Zm5.84,6.45v24.57h-5.48V264.08Z" transform="translate(-213.95 -249.35)"/><path class="cls-1" d="M546.07,276.64v-.48a18.93,18.93,0,0,1,.65-5.1,12.21,12.21,0,0,1,1.91-4,8.58,8.58,0,0,1,3-2.57,9,9,0,0,1,4-.89,8.49,8.49,0,0,1,3.9.86,8.18,8.18,0,0,1,2.85,2.46,13,13,0,0,1,1.88,3.82,25.35,25.35,0,0,1,1,4.91v1.52a24.86,24.86,0,0,1-1,4.82,12.92,12.92,0,0,1-1.88,3.77,8.18,8.18,0,0,1-2.86,2.45,8.62,8.62,0,0,1-3.93.86,8.52,8.52,0,0,1-4-.93,8.77,8.77,0,0,1-3-2.61,12.36,12.36,0,0,1-1.91-4A18.2,18.2,0,0,1,546.07,276.64Zm5.46-.48v.48a15.47,15.47,0,0,0,.3,3.13,8.56,8.56,0,0,0,1,2.55,4.63,4.63,0,0,0,4.24,2.35,5.36,5.36,0,0,0,3.06-.81,5.7,5.7,0,0,0,1.89-2.22,10.43,10.43,0,0,0,.94-3.12v-4.11a10.48,10.48,0,0,0-.56-2.5,7.12,7.12,0,0,0-1.12-2,4.92,4.92,0,0,0-1.73-1.36,5.58,5.58,0,0,0-2.43-.49,4.72,4.72,0,0,0-2.54.64,5,5,0,0,0-1.71,1.75,8.26,8.26,0,0,0-1,2.58A15.19,15.19,0,0,0,551.53,276.16Zm10.48,7.4V253.77h5.48v34.88h-5Z" transform="translate(-213.95 -249.35)"/><path class="cls-1" d="M573.25,257.63a2.8,2.8,0,0,1,.82-2.07,3.59,3.59,0,0,1,4.59,0,2.78,2.78,0,0,1,.84,2.07,2.75,2.75,0,0,1-.84,2.05,3.66,3.66,0,0,1-4.59,0A2.77,2.77,0,0,1,573.25,257.63Zm5.84,6.45v24.57h-5.48V264.08Z" transform="translate(-213.95 -249.35)"/><path class="cls-1" d="M595.13,284.74a5.43,5.43,0,0,0,2.41-.53,4.5,4.5,0,0,0,1.74-1.49,4.14,4.14,0,0,0,.74-2.2h5.14a7.73,7.73,0,0,1-1.4,4.34,9.74,9.74,0,0,1-3.61,3.1,10.75,10.75,0,0,1-5,1.14,11.59,11.59,0,0,1-4.89-1,9.67,9.67,0,0,1-3.46-2.67,11.94,11.94,0,0,1-2.08-3.93,16,16,0,0,1-.69-4.77V276a16.1,16.1,0,0,1,.69-4.78,11.89,11.89,0,0,1,2.08-3.94,9.67,9.67,0,0,1,3.46-2.67,11.53,11.53,0,0,1,4.87-1,11,11,0,0,1,5.17,1.17,8.87,8.87,0,0,1,3.49,3.24,9.29,9.29,0,0,1,1.33,4.83H600a5.78,5.78,0,0,0-.67-2.47,4.55,4.55,0,0,0-1.68-1.75,4.79,4.79,0,0,0-2.57-.66,5.13,5.13,0,0,0-2.74.67,4.6,4.6,0,0,0-1.69,1.81,9,9,0,0,0-.88,2.57,16.57,16.57,0,0,0-.26,2.94v.79a17.91,17.91,0,0,0,.25,3,8.34,8.34,0,0,0,.87,2.55,4.82,4.82,0,0,0,1.71,1.79A5.19,5.19,0,0,0,595.13,284.74Z" transform="translate(-213.95 -249.35)"/><path class="cls-1" d="M379.86,325.35a5.15,5.15,0,0,0-.3-1.82,3.75,3.75,0,0,0-1.08-1.45,8.71,8.71,0,0,0-2.16-1.28,30.35,30.35,0,0,0-3.55-1.29,35.63,35.63,0,0,1-4.33-1.62A15.51,15.51,0,0,1,365,315.8a8.79,8.79,0,0,1-2.29-2.75,7.63,7.63,0,0,1-.81-3.59,7.88,7.88,0,0,1,.85-3.68,8.37,8.37,0,0,1,2.42-2.87,11.8,11.8,0,0,1,3.73-1.89,16.13,16.13,0,0,1,4.75-.67,13.81,13.81,0,0,1,6.33,1.36,10.16,10.16,0,0,1,4.1,3.66,9.34,9.34,0,0,1,1.44,5.06h-5.64a5.91,5.91,0,0,0-.69-2.89,4.89,4.89,0,0,0-2.08-2,7.65,7.65,0,0,0-3.52-.73,8,8,0,0,0-3.36.62,4.51,4.51,0,0,0-2,1.65,4.36,4.36,0,0,0-.66,2.37,3.45,3.45,0,0,0,.43,1.69,4.69,4.69,0,0,0,1.32,1.41,11.34,11.34,0,0,0,2.22,1.21,27.75,27.75,0,0,0,3.15,1.09,31.05,31.05,0,0,1,4.77,1.81,13.72,13.72,0,0,1,3.4,2.23,8.18,8.18,0,0,1,2,2.83,9,9,0,0,1,.68,3.57,8.22,8.22,0,0,1-.84,3.76,8,8,0,0,1-2.39,2.84,11.14,11.14,0,0,1-3.71,1.79,18,18,0,0,1-9.49,0,13.45,13.45,0,0,1-4.18-1.94,9.85,9.85,0,0,1-3-3.27,9.19,9.19,0,0,1-1.11-4.6h5.68a6.21,6.21,0,0,0,.56,2.75,4.9,4.9,0,0,0,1.55,1.85,6.86,6.86,0,0,0,2.32,1.06,11.76,11.76,0,0,0,2.84.34,8.65,8.65,0,0,0,3.35-.57,4.42,4.42,0,0,0,2-1.59A4.11,4.11,0,0,0,379.86,325.35Z" transform="translate(-213.95 -249.35)"/><path class="cls-1" d="M401.33,309.3v4H387.52v-4Zm-9.83-6H397v23.79a3.68,3.68,0,0,0,.33,1.74,1.69,1.69,0,0,0,.92.81,4.37,4.37,0,0,0,1.38.2,7.68,7.68,0,0,0,1.09-.07c.34,0,.62-.09.84-.13l0,4.17a14.32,14.32,0,0,1-1.58.37,12.37,12.37,0,0,1-2,.16,8,8,0,0,1-3.33-.67,4.88,4.88,0,0,1-2.26-2.19,8.62,8.62,0,0,1-.82-4Z" transform="translate(-213.95 -249.35)"/><path class="cls-1" d="M420.2,318.92l.05,3.39h-3.92a11.23,11.23,0,0,0-2.67.28,5.71,5.71,0,0,0-1.93.83,3.45,3.45,0,0,0-1.15,1.32,3.78,3.78,0,0,0-.39,1.74,3.61,3.61,0,0,0,.45,1.79,3.3,3.3,0,0,0,1.33,1.26,4.55,4.55,0,0,0,2.12.45,6,6,0,0,0,2.93-.69,5.83,5.83,0,0,0,2-1.7,3.72,3.72,0,0,0,.77-1.92l1.77,2.43a8.15,8.15,0,0,1-.93,2,9.71,9.71,0,0,1-1.71,2,8.49,8.49,0,0,1-2.51,1.57,8.66,8.66,0,0,1-3.37.62,9.15,9.15,0,0,1-4.28-1,7.46,7.46,0,0,1-2.94-2.61,6.72,6.72,0,0,1-1.07-3.73,7.86,7.86,0,0,1,.74-3.47,6.66,6.66,0,0,1,2.17-2.53,10.53,10.53,0,0,1,3.52-1.55,19.06,19.06,0,0,1,4.76-.54Zm-.79,10V317.22a5,5,0,0,0-.48-2.27,3.3,3.3,0,0,0-1.43-1.48,5.16,5.16,0,0,0-2.42-.52,5.32,5.32,0,0,0-2.31.46,3.69,3.69,0,0,0-1.51,1.22,2.94,2.94,0,0,0-.55,1.75h-5.43a6,6,0,0,1,.7-2.81,7.53,7.53,0,0,1,2-2.43,10,10,0,0,1,3.19-1.68,13.24,13.24,0,0,1,4.17-.62,12.2,12.2,0,0,1,4.9.93,7.58,7.58,0,0,1,3.38,2.81,8.37,8.37,0,0,1,1.23,4.69v10.92a17.08,17.08,0,0,0,.24,3,9.61,9.61,0,0,0,.69,2.3v.36h-5.6a10,10,0,0,1-.6-2.26A17.52,17.52,0,0,1,419.41,328.94Z" transform="translate(-213.95 -249.35)"/><path class="cls-1" d="M436.06,314.54v19.32H430.6V309.3h5.14Zm-1,6.13-1.76,0a15.78,15.78,0,0,1,.73-4.79,11.77,11.77,0,0,1,2-3.75,9,9,0,0,1,3.07-2.42,9.32,9.32,0,0,1,4-.85,10,10,0,0,1,3.2.49,6,6,0,0,1,2.47,1.58,7.11,7.11,0,0,1,1.58,2.83,14.41,14.41,0,0,1,.54,4.25v15.87h-5.48V318a6.4,6.4,0,0,0-.51-2.8,3.06,3.06,0,0,0-1.47-1.48,5.8,5.8,0,0,0-2.39-.44,5.14,5.14,0,0,0-2.51.59,5.46,5.46,0,0,0-1.87,1.61,7.56,7.56,0,0,0-1.17,2.36A9.84,9.84,0,0,0,435.08,320.67Z" transform="translate(-213.95 -249.35)"/><path class="cls-1" d="M455.51,321.85v-.47a18.48,18.48,0,0,1,.66-5.1,12.1,12.1,0,0,1,1.9-4,8.42,8.42,0,0,1,3-2.57,8.82,8.82,0,0,1,4-.9,8.29,8.29,0,0,1,3.89.87,8.09,8.09,0,0,1,2.86,2.46,13.29,13.29,0,0,1,1.88,3.81,24.89,24.89,0,0,1,1,4.92v1.52a23.9,23.9,0,0,1-1,4.81,13,13,0,0,1-1.88,3.77,8.24,8.24,0,0,1-2.87,2.46,8.56,8.56,0,0,1-3.93.86,8.45,8.45,0,0,1-4-.93,8.8,8.8,0,0,1-3-2.61,12.4,12.4,0,0,1-1.9-4A17.76,17.76,0,0,1,455.51,321.85Zm5.46-.47v.47a14.86,14.86,0,0,0,.31,3.14,8.05,8.05,0,0,0,1,2.55,5,5,0,0,0,1.71,1.73,4.9,4.9,0,0,0,2.52.62,5.28,5.28,0,0,0,3.06-.82,5.6,5.6,0,0,0,1.89-2.21,10.15,10.15,0,0,0,.94-3.12v-4.11a10.26,10.26,0,0,0-.55-2.5,7,7,0,0,0-1.12-2,4.89,4.89,0,0,0-1.73-1.36,5.59,5.59,0,0,0-2.44-.49,4.83,4.83,0,0,0-2.54.63,5.21,5.21,0,0,0-1.71,1.75,8.56,8.56,0,0,0-1,2.59A15.11,15.11,0,0,0,461,321.38Zm10.49,7.4V299h5.48v34.87h-5Z" transform="translate(-213.95 -249.35)"/><path class="cls-1" d="M497.3,318.92l.05,3.39h-3.92a11.37,11.37,0,0,0-2.68.28,5.74,5.74,0,0,0-1.92.83,3.56,3.56,0,0,0-1.16,1.32,3.9,3.9,0,0,0-.38,1.74,3.61,3.61,0,0,0,.45,1.79,3.24,3.24,0,0,0,1.33,1.26,4.55,4.55,0,0,0,2.12.45,6,6,0,0,0,2.93-.69,5.83,5.83,0,0,0,2-1.7,3.72,3.72,0,0,0,.77-1.92l1.77,2.43a8.15,8.15,0,0,1-.93,2,9.71,9.71,0,0,1-1.71,2,8.41,8.41,0,0,1-2.52,1.57,8.57,8.57,0,0,1-3.36.62,9.15,9.15,0,0,1-4.28-1,7.46,7.46,0,0,1-2.94-2.61,6.72,6.72,0,0,1-1.07-3.73,7.86,7.86,0,0,1,.74-3.47,6.66,6.66,0,0,1,2.17-2.53,10.44,10.44,0,0,1,3.52-1.55,19.06,19.06,0,0,1,4.76-.54Zm-.79,10V317.22A5,5,0,0,0,496,315a3.32,3.32,0,0,0-1.44-1.48,5.09,5.09,0,0,0-2.41-.52,5.32,5.32,0,0,0-2.31.46,3.79,3.79,0,0,0-1.52,1.22,3,3,0,0,0-.54,1.75h-5.43a6,6,0,0,1,.7-2.81,7.29,7.29,0,0,1,2-2.43,10,10,0,0,1,3.19-1.68,13.24,13.24,0,0,1,4.17-.62,12.2,12.2,0,0,1,4.9.93,7.5,7.5,0,0,1,3.37,2.81,8.29,8.29,0,0,1,1.24,4.69v10.92a17.08,17.08,0,0,0,.24,3,9.17,9.17,0,0,0,.69,2.3v.36h-5.6a10,10,0,0,1-.6-2.26A17.52,17.52,0,0,1,496.51,328.94Z" transform="translate(-213.95 -249.35)"/><path class="cls-1" d="M513.22,314v19.89h-5.45V309.3H513Zm7.5-4.83,0,5.08c-.34-.06-.7-.1-1.08-.13s-.77,0-1.14,0a6.92,6.92,0,0,0-2.47.4,4.67,4.67,0,0,0-1.78,1.14,5,5,0,0,0-1.1,1.78,7.6,7.6,0,0,0-.45,2.34l-1.25.09a18.63,18.63,0,0,1,.46-4.29,11.3,11.3,0,0,1,1.37-3.48,6.81,6.81,0,0,1,2.31-2.34,6.09,6.09,0,0,1,3.22-.84,7.14,7.14,0,0,1,1.08.09A4.25,4.25,0,0,1,520.72,309.14Z" transform="translate(-213.95 -249.35)"/><path class="cls-1" d="M522.76,321.85v-.47a18.48,18.48,0,0,1,.66-5.1,11.9,11.9,0,0,1,1.9-4,8.48,8.48,0,0,1,3-2.57,8.89,8.89,0,0,1,4-.9,8.32,8.32,0,0,1,3.89.87,8,8,0,0,1,2.85,2.46A12.79,12.79,0,0,1,541,316a24.88,24.88,0,0,1,1,4.92v1.52a23.89,23.89,0,0,1-1,4.81,12.56,12.56,0,0,1-1.88,3.77,8.21,8.21,0,0,1-2.86,2.46,9.23,9.23,0,0,1-7.93-.07,8.86,8.86,0,0,1-3-2.61,12.19,12.19,0,0,1-1.9-4A17.76,17.76,0,0,1,522.76,321.85Zm5.46-.47v.47a15.57,15.57,0,0,0,.3,3.14,8.31,8.31,0,0,0,1,2.55,4.63,4.63,0,0,0,4.23,2.35,5.28,5.28,0,0,0,3.06-.82,5.6,5.6,0,0,0,1.89-2.21,10.43,10.43,0,0,0,.94-3.12v-4.11a10.75,10.75,0,0,0-.55-2.5,7,7,0,0,0-1.13-2,4.72,4.72,0,0,0-1.73-1.36,5.58,5.58,0,0,0-2.43-.49,4.81,4.81,0,0,0-2.54.63,5.21,5.21,0,0,0-1.71,1.75,8.56,8.56,0,0,0-1,2.59A14.47,14.47,0,0,0,528.22,321.38Zm10.49,7.4V299h5.48v34.87h-5Z" transform="translate(-213.95 -249.35)"/><path class="cls-1" d="M563.69,327.21a2.85,2.85,0,0,0-.41-1.49,3.55,3.55,0,0,0-1.55-1.21,15.61,15.61,0,0,0-3.37-1,27.91,27.91,0,0,1-3.56-1A10.88,10.88,0,0,1,552,321a6.2,6.2,0,0,1-1.79-2,5.72,5.72,0,0,1-.63-2.72,6.33,6.33,0,0,1,.66-2.84,7.07,7.07,0,0,1,1.88-2.37,9.17,9.17,0,0,1,3-1.61,13.72,13.72,0,0,1,9.22.45,8.14,8.14,0,0,1,3.39,2.79,7,7,0,0,1,1.18,4h-5.46a3.58,3.58,0,0,0-2-3.21,5,5,0,0,0-2.45-.54,5.27,5.27,0,0,0-2.32.45,3.17,3.17,0,0,0-1.36,1.14,2.91,2.91,0,0,0-.44,1.55,2.47,2.47,0,0,0,.24,1.1,2.44,2.44,0,0,0,.8.88,6.33,6.33,0,0,0,1.56.74,19.91,19.91,0,0,0,2.48.66,23.35,23.35,0,0,1,4.83,1.51,7.91,7.91,0,0,1,3.12,2.36,5.92,5.92,0,0,1,1.08,3.65,6.44,6.44,0,0,1-.69,3,6.84,6.84,0,0,1-2,2.34,9.78,9.78,0,0,1-3.14,1.53,14.05,14.05,0,0,1-4.09.55,12.25,12.25,0,0,1-5.64-1.19,8.88,8.88,0,0,1-3.5-3.07,7.2,7.2,0,0,1-1.19-3.89h5.28a4,4,0,0,0,.85,2.41,4.35,4.35,0,0,0,1.9,1.3,7.32,7.32,0,0,0,2.37.4,6.83,6.83,0,0,0,2.47-.4,3.53,3.53,0,0,0,1.52-1.09A2.6,2.6,0,0,0,563.69,327.21Z" transform="translate(-213.95 -249.35)"/></svg>